HIERARCHY
ROOT Hips
{
  OFFSET -169.661 97.8281 -227.267
  CHANNELS 6 Xposition Yposition Zposition Zrotation Xrotation Yrotation
  JOINT RightUpLeg
  {
    OFFSET -8.9458 -8.66707 0.101652
    CHANNELS 3 Zrotation Xrotation Yrotation
    JOINT RightLeg
    {
      OFFSET 0 -44.4227 1.3727
      CHANNELS 3 Zrotation Xrotation Yrotation
      JOINT RightFoot
      {
        OFFSET 0.253549 -42.0924 -1.46059
        CHANNELS 3 Zrotation Xrotation Yrotation
        JOINT RightToes
        {
          OFFSET 0.04 -4.41509 8.4991
          CHANNELS 3 Zrotation Xrotation Yrotation
          End Site
          {
            OFFSET -0.08 -0.137448 9.77979
          }
        }
      }
    }
  }
  JOINT Spine
  {
    OFFSET 0 11.8905 0
    CHANNELS 3 Zrotation Xrotation Yrotation
    JOINT Spine1
    {
      OFFSET 0 25.6574 0.127663
      CHANNELS 3 Zrotation Xrotation Yrotation
      JOINT HEad
      {
        OFFSET 0 8.73416 0.011341
        CHANNELS 3 Zrotation Xrotation Yrotation
        End Site
        {
          OFFSET -0.29 12.7742 2.51395
        }
      }
      JOINT LeftShoulder1
      {
        OFFSET 8.99 -0.362252 -0.22
        CHANNELS 3 Zrotation Xrotation Yrotation
        JOINT LeftArm
        {
          OFFSET 10.2827 -0.00338 0.322123
          CHANNELS 3 Zrotation Xrotation Yrotation
          JOINT LeftForeArm
          {
            OFFSET 32.7669 0.099144 -1.42434
            CHANNELS 3 Zrotation Xrotation Yrotation
            JOINT LeftHand
            {
              OFFSET 27.5643 0.085362 1.02216
              CHANNELS 3 Zrotation Xrotation Yrotation
              End Site
              {
                OFFSET 16.7443 -0.6 1.50291
              }
            }
          }
        }
      }
      JOINT RightShoulder
      {
        OFFSET -8.99 -0.362252 -0.22
        CHANNELS 3 Zrotation Xrotation Yrotation
        JOINT RightArm
        {
          OFFSET -10.2827 -0.00338 0.322123
          CHANNELS 3 Zrotation Xrotation Yrotation
          JOINT RightForeArm
          {
            OFFSET -32.8971 0.099144 -1.42434
            CHANNELS 3 Zrotation Xrotation Yrotation
            JOINT RightHand
            {
              OFFSET -27.4921 0.085362 1.02216
              CHANNELS 3 Zrotation Xrotation Yrotation
              End Site
              {
                OFFSET -16.6312 -0.6 1.50291
              }
            }
          }
        }
      }
    }
  }
  JOINT LeftUpLeg
  {
    OFFSET 8.9458 -8.66707 0.101652
    CHANNELS 3 Zrotation Xrotation Yrotation
    JOINT LeftLeg
    {
      OFFSET 0 -44.4227 1.3727
      CHANNELS 3 Zrotation Xrotation Yrotation
      JOINT LeftFoot
      {
        OFFSET -0.253549 -42.0924 -1.46059
        CHANNELS 3 Zrotation Xrotation Yrotation
        JOINT LeftToes
        {
          OFFSET -0.04 -4.41509 8.4991
          CHANNELS 3 Zrotation Xrotation Yrotation
          End Site
          {
            OFFSET 0.08 -0.047448 9.77979
          }
        }
      }
    }
  }
}
MOTION
Frames:	19
Frame Time:	0.0166667
-197.991 87.4788 -192.175 -11.0566 -10.7881 -30.8689 -21.455 -2.77657 11.2607 51.0486 39.0745 -53.4455 -28.3835 2.42177 -1.52347 0.0462048 0.000533403 0.662642 9.88011 15.4293 -6.16189 -0.00368949 0.01462 -1.75166e-006 -5.73354 9.27836 12.4555 3.97569e-016 9.93923e-016 6.36111e-015 -116.172 -60.5159 -92.5331 -55.0302 52.9211 -51.2427 18.9897 17.0842 -17.253 16.6749 11.6746 -2.98253 103.725 -8.0795 71.8228 28.7329 55.302 88.7103 17.9289 21.1051 1.82209 23.8492 -28.8025 -39.7873 -22.8406 30.1165 76.1471 -31.7165 -2.67021 -1.99832 -1.18446e-009 1.5602e-007 -4.87131e-009 
-197.517 86.9145 -190.105 -11.5975 -10.4865 -31.4998 -21.9401 -2.55755 11.6625 51.5946 40.1315 -53.1715 -28.4824 2.49016 -1.52043 0.0462048 0.000533403 0.662642 11.4223 15.1448 -6.17242 -0.00368949 0.01334 -1.75166e-006 -5.79464 9.21633 12.6816 1.98785e-016 -7.95139e-016 -9.54166e-015 -116.781 -61.121 -93.5752 -55.9831 53.1243 -50.4818 19.1142 16.8836 -17.1531 16.2133 11.5867 -3.08299 104.147 -7.61228 72.0229 28.6193 55.326 88.6212 18.127 21.0411 1.59294 23.4358 -29.604 -41.4735 -23.3157 31.8636 78.1972 -32.991 -2.54826 -2.02716 -1.18447e-009 1.5602e-007 -4.87131e-009 
-196.999 86.4632 -188.045 -12.0882 -10.1861 -32.1375 -22.4048 -2.27716 12.0999 51.7934 40.9888 -52.5766 -28.6276 2.54842 -1.51939 0.0462048 0.000533403 0.662642 12.7809 14.9968 -6.14422 -0.00368949 0.012852 -1.75166e-006 -5.71093 9.02129 12.9015 1.59028e-015 -7.95139e-016 -3.18055e-015 -117.358 -61.6557 -94.5988 -56.7882 53.29 -49.8488 19.2448 16.6145 -16.9973 15.7374 11.4746 -3.16475 104.631 -7.14988 72.2749 28.56 55.3637 88.5156 18.3296 20.9406 1.31207 23.0391 -30.3191 -42.8637 -24.2817 33.3741 80.3728 -32.817 -2.49161 -2.00757 -1.18447e-009 1.5602e-007 -4.87131e-009 
-196.43 86.115 -186.004 -12.5139 -9.89294 -32.7642 -22.7635 -1.94389 12.5424 51.5358 41.4302 -51.4483 -29.9067 2.60431 -1.51894 0.0462048 0.000533403 0.662642 13.9232 14.9742 -6.09029 -0.00368949 0.012692 -1.75166e-006 -5.49621 8.71702 13.118 2.38542e-015 -1.59028e-015 -9.54166e-015 -117.848 -62.1168 -95.5113 -57.4211 53.4036 -49.3588 19.3829 16.3025 -16.8132 15.2377 11.3626 -3.22317 105.177 -6.69739 72.5711 28.5468 55.4136 88.3891 18.5244 20.8105 0.995128 22.7053 -30.7967 -43.9453 -25.9856 34.5521 82.7151 -32.3371 -2.41782 -1.97503 -1.18446e-009 1.5602e-007 -4.87131e-009 
-195.835 85.9065 -184.024 -12.8682 -9.61366 -33.3667 -23.0902 -1.55873 13.0109 50.9782 41.6861 -50.1167 -31.1915 2.62703 -1.51663 0.0462048 0.000533403 0.662642 14.809 15.0567 -6.00039 -0.00368949 0.012716 -1.75166e-006 -5.15082 8.34606 13.3197 -4.41391e-032 3.97569e-016 6.36111e-015 -118.287 -63.4104 -96.6928 -58.0207 52.4302 -50.2155 18.4797 15.9922 -16.34 14.7339 11.2698 -3.25082 105.772 -6.29287 72.9137 28.5916 55.4627 88.2187 18.7224 20.6673 0.658543 22.956 -30.7452 -43.3272 -27.4403 35.2215 83.6279 -31.4476 -2.38063 -1.9234 -1.18446e-009 1.5602e-007 -4.87131e-009 
-195.151 85.9064 -182.136 -13.1416 -9.37017 -33.9299 -23.4905 -1.24539 13.5301 50.4778 41.7926 -48.796 -31.3859 2.63224 -1.50981 0.0462048 0.000533403 0.662642 15.4166 15.2329 -5.87622 -0.00368949 0.01278 -1.75166e-006 -4.70185 7.94587 13.4979 2.38542e-015 0 -6.36111e-015 -118.739 -65.4466 -98.1425 -59.2349 50.8567 -52.2151 16.4966 16.1282 -14.2995 14.2714 11.1923 -3.24063 106.359 -5.97252 73.2896 28.6858 55.5012 87.9963 18.8977 20.5356 0.361863 23.87 -30.2397 -41.1383 -29.3611 33.4794 84.381 -28.1318 -2.50342 -1.76883 -1.18446e-009 1.5602e-007 -4.87131e-009 
-194.388 86.1062 -180.352 -13.3193 -9.1929 -34.4421 -23.8615 -0.998482 14.0375 49.9824 41.7982 -47.546 -32.0378 2.70507 -1.49943 0.0462048 0.000533403 0.662642 15.7439 15.4957 -5.72882 -0.00368949 0.01274 -1.75166e-006 -4.20088 7.54252 13.6508 -2.38542e-015 -3.97569e-016 -3.18055e-015 -119.223 -67.6854 -99.6263 -61.1933 49.5028 -54.9365 15.1338 16.3697 -10.9196 13.9071 11.1092 -3.18647 106.866 -5.75388 73.6635 28.7811 55.5355 87.7519 19.0341 20.44 0.159189 25.4751 -29.2133 -37.5375 -31.1193 30.1172 84.6782 -23.2 -2.74518 -1.57013 -1.18446e-009 1.5602e-007 -4.87132e-009 
-193.559 86.5069 -178.661 -13.3859 -9.11406 -34.8935 -24.3062 -0.868418 14.5572 49.5835 41.7583 -46.5273 -32.3942 2.78638 -1.4882 0.0462048 0.000533403 0.662642 15.81 15.8347 -5.57553 -0.000839471 0.0125801 0.000598202 -3.71786 7.15423 13.7789 -2.78299e-015 7.95139e-016 6.36111e-015 -119.647 -69.5704 -100.856 -63.8044 49.0719 -58.0848 14.3985 17.163 -6.44211 13.6908 10.9995 -3.08391 107.223 -5.61527 73.9714 28.7511 55.6082 87.5718 19.1045 20.3938 0.0871659 27.6456 -27.4905 -32.77 -32.6788 25.5433 84.4556 -17.0649 -3.06897 -1.30937 -1.18446e-009 1.5602e-007 -4.87131e-009 
-192.772 88.0762 -177.178 -13.4315 -9.1696 -35.331 -24.2208 -0.649203 14.9452 47.6778 41.5952 -44.2836 -32.0032 2.67668 -1.46794 0.0462048 0.000533403 0.662642 15.9114 15.6271 -5.68294 0.0211401 -0.0324323 -0.0160958 -3.15299 7.63212 13.7406 3.18055e-015 0 3.18055e-015 -119.61 -71.179 -102.323 -67.0382 50.3726 -62.7849 13.4197 20.6787 -4.92759 15.8382 8.25954 -2.33795 104.625 -8.51833 72.3268 28.3085 56.0199 88.0439 15.8747 24.9541 -0.416 29.3359 -25.4081 -27.9716 -34.0464 21.7001 81.9167 -10.4572 -3.16088 -0.936786 -1.18447e-009 1.5602e-007 -4.87131e-009 
-191.934 89.39 -176.054 -13.489 -9.35331 -35.7772 -23.6306 -0.265413 15.1833 44.3744 41.2172 -40.8467 -31.209 2.40829 -1.43253 0.0462048 0.000533403 0.662642 16.1202 14.9501 -6.07483 0.02503 -0.0328028 -0.0190359 -2.58595 8.90988 13.5289 3.18055e-015 -1.59028e-015 3.18055e-015 -118.837 -71.9171 -103.436 -69.9411 53.8168 -68.298 12.7013 25.3016 -3.71038 19.7791 3.90036 -1.2253 99.3174 -13.1344 69.1447 27.3809 56.7336 89.2191 11.0503 31.1401 -1.32542 30.5447 -23.1976 -23.1535 -35.6148 18.8116 77.5532 -4.3151 -3.12623 -0.531139 -1.18447e-009 1.5602e-007 -4.87132e-009 
-191.113 90.6149 -175.237 -13.5093 -9.6508 -36.2654 -22.688 0.282857 15.2582 39.9571 40.6444 -36.3397 -30.0044 2.00211 -1.39205 0.0462048 0.000533403 0.662642 16.3823 13.8515 -6.71927 0.02417 -0.029173 -0.0204564 -2.10963 11.0297 13.211 -7.95139e-016 -1.59028e-015 -3.18055e-015 -117.228 -71.9967 -104.457 -71.2581 57.4835 -75.2131 9.60558 29.4969 -1.15729 25.0792 -1.26711 0.179377 91.2618 -18.2206 64.6047 25.9223 57.5981 91.0652 5.93297 37.4264 -3.22196 31.2625 -21.1083 -18.2274 -37.5371 17.2338 71.7804 1.48061 -2.98623 -0.121855 -1.18446e-009 1.5602e-007 -4.87131e-009 
-190.324 91.8452 -174.676 -13.5327 -10.0688 -36.8784 -20.8241 0.882283 14.609 33.4736 40.0147 -29.0844 -28.338 1.32849 -1.36776 0.0462048 0.000533403 0.662642 16.7776 11.4562 -8.31986 0.0472186 -0.0763509 -0.0749901 -1.99226 15.9056 12.9977 7.95139e-016 0 -6.36111e-015 -113.319 -70.2813 -105.276 -67.186 60.6109 -82.1273 3.92911 28.5071 0.19427 33.6799 -7.87431 1.38463 76.043 -22.9828 57.3093 23.2325 58.4881 93.7968 4.46704 24.1052 1.40916 30.966 -19.2999 -12.8266 -39.5084 19.6081 62.1183 3.23709 -2.75918 -0.0310819 -1.18446e-009 1.5602e-007 -4.87131e-009 
-189.492 93.3513 -174.369 -13.5722 -10.4897 -37.6571 -18.9692 0.652559 13.5148 26.7918 37.9325 -19.8392 -16.0124 -0.503515 -1.77126 0.0462048 0.000533403 0.662642 17.3261 8.21964 -10.8628 0.0507486 -0.0402211 -0.0762054 -2.65023 22.8188 13.1751 1.59028e-015 0 -0 -108.423 -67.436 -106.417 -60.1163 63.3967 -87.7878 1.92698 25.8995 0.829927 32.8882 -3.92625 1.69373 72.1107 -29.1133 60.7284 20.6777 58.5939 93.9452 -2.04618 35.2995 -11.8376 29.5151 -17.8687 -7.05394 -38.4741 24.2134 50.6582 3.6545 -2.4918 0.275581 -1.18446e-009 1.5602e-007 -4.87131e-009 
-188.588 94.8737 -174.28 -13.6483 -10.8162 -38.6479 -16.0157 0.104927 11.3937 20.284 33.8345 -10.055 -12.3388 -1.39759 -1.17321 0.0462048 0.000533403 0.662642 18.2031 4.99311 -14.0814 0.0476386 -0.00207108 -0.0762209 -4.784 30.7335 14.0494 -1.59028e-015 3.18055e-015 6.36111e-015 -104.666 -64.193 -108.979 -57.9245 62.8083 -84.5909 8.31409 21.6396 10.6077 32.1235 0.467304 3.32013 66.8745 -35.9224 63.7291 25.9747 57.4846 88.4221 -6.29531 29.5729 -0.272823 27.2473 -17.1432 -1.07043 -34.2188 29.9038 37.6707 2.92411 -2.27137 0.400772 -1.18446e-009 1.5602e-007 -4.87131e-009 
-187.61 96.4655 -174.312 -13.8135 -10.8372 -41.7421 -13.1644 -1.06677 10.3046 14.6263 30.599 -1.65208 -8.75431 -2.16602 -0.870327 0.0462048 0.000533403 0.662642 18.8967 2.90699 -14.7954 -0.00733882 0.0388238 0.0261646 -7.12435 37.5557 14.9585 -3.18055e-015 1.59028e-015 6.36111e-015 -101.546 -60.0426 -112.599 -59.377 60.5957 -75.9185 -5.63802 22.1596 -3.10572 31.5522 4.18574 4.77213 60.6141 -42.0608 65.3344 33.8503 55.5049 81.2269 -6.66092 24.6654 -5.05086 24.8968 -16.2581 6.28468 -26.594 35.1856 23.1236 1.19156 -2.06305 0.374415 -1.18446e-009 1.5602e-007 -4.87132e-009 
-186.564 97.9987 -174.551 -13.8841 -10.4254 -46.5315 -10.7542 -3.06926 10.0448 11.0398 27.1873 1.95109 -2.88112 -2.81018 -0.687293 0.0462048 0.000533403 0.662642 19.6677 1.74892 -13.4093 -0.00541875 0.0434641 0.0285838 -9.86305 43.2677 16.2361 2.64834e-031 -4.77083e-015 3.18055e-015 -99.4922 -58.6314 -114.448 -60.8763 59.0137 -69.4093 4.19263 23.765 9.20602 30.6226 7.34517 5.93467 57.1527 -44.5897 66.7369 38.3346 53.9694 74.7761 -9.20153 22.802 1.6617 22.5479 -15.5711 14.1292 -16.155 38.7324 7.45744 -1.40833 -1.76547 0.206209 -1.18446e-009 1.5602e-007 -4.87132e-009 
-185.482 99.3161 -174.932 -13.7501 -9.66937 -52.6813 -8.21543 -5.58459 10.3394 8.42289 25.1942 2.11004 -1.78134 -3.38732 -0.33998 0.0462048 0.000533403 0.662642 20.4964 1.48255 -10.2826 -0.00247878 0.0454442 0.0293435 -12.7948 47.8575 17.8006 6.36111e-015 -1.59028e-015 -0 -98.5532 -59.1113 -115.489 -62.4331 58.2397 -64.7344 -0.483755 20.3347 1.78874 27.2061 7.71517 -3.3068 61.2145 -34.4989 73.6713 40.8291 52.0081 69.2292 -10.5652 20.2129 1.1579 20.4672 -15.1724 21.973 -4.49109 40.0737 -8.26533 -4.64172 -1.39836 -0.0618632 -1.18447e-009 1.5602e-007 -4.87131e-009 
-184.397 100.314 -175.464 -13.569 -8.86129 -58.0718 -6.15797 -8.01242 9.27358 6.17076 24.9935 0.296354 0.63565 -3.54153 -0.162967 0.0462048 0.000533403 0.662642 21.4059 2.46015 -8.65556 0.000778497 0.107761 -0.0623156 -16.8934 50.1575 20.9895 8.82781e-032 -1.59028e-015 3.18055e-015 -100.598 -61.8653 -118.702 -63.7577 57.6642 -61.2591 5.24697 21.8463 8.61082 25.8963 9.54557 -0.61708 60.3668 -34.4752 74.8889 42.651 51.31 66.1145 -9.17189 19.6433 5.7333 18.1574 -15.4635 27.6599 7.06881 39.4689 -22.9363 -8.34773 -1.00387 -0.374328 -1.18446e-009 1.5602e-007 -4.87131e-009 
-183.286 100.964 -176.162 -13.3415 -8.04776 -62.7626 -4.57355 -10.4177 6.89769 4.0965 26.7545 -2.38471 1.94397 -3.43465 -0.0444431 0.0462048 0.000533403 0.662642 22.0409 3.55233 -7.29876 0.00282472 0.0235128 0.0192673 -20.7421 51.8395 24.0207 -0 0 3.18055e-015 -103.526 -65.2993 -121.948 -63.8681 56.2191 -55.6795 2.59623 19.8169 -1.31001 24.5924 11.0195 1.37556 59.7383 -34.1721 75.3443 44.0394 51.0766 64.7109 -10.1149 18.6938 4.2224 15.6718 -16.0813 31.2906 16.2395 36.9739 -33.3016 -11.554 -0.65555 -0.586336 -1.18446e-009 1.5602e-007 -4.87133e-009 
